<svg xmlns="http://www.w3.org/2000/svg" width="123" height="56" viewBox="0 0 123 56">
    <g fill="#F70" fill-rule="evenodd">
        <path d="M102.623 39.005a1.5 1.5 0 1 0-.245 2.99 1.5 1.5 0 0 0 .245-2.99M97.622 39.005a1.501 1.501 0 0 0-1.617 1.617 1.507 1.507 0 0 0 1.374 1.373 1.501 1.501 0 0 0 .243-2.99M114 17.5a1.5 1.5 0 1 0-3.001.001A1.5 1.5 0 0 0 114 17.5M88.925 7.339c0-2.407 1.935-4.365 4.313-4.365 2.379 0 4.314 1.958 4.314 4.365v4.365h-4.314c-2.378 0-4.313-1.958-4.313-4.365zm8.623 7.325c0 2.406-1.934 4.376-4.314 4.376V22c3.992 0 7.239-3.286 7.239-7.326v-.016L115 14.645C115 6.953 109.162.643 101.727 0v3.018c4.818.527 8.749 4.046 9.935 8.686h-11.186V7.34c0-4.04-3.246-7.326-7.238-7.326C89.248.013 86 3.3 86 7.339c0 4.04 3.248 7.326 7.238 7.326h4.31z"/>
        <path d="M103.09 23.276c1.115-2.542 3.607-4.312 6.504-4.312V16c-5.536 0-10.02 4.598-10.02 10.27h12.054c-1.34 5.01-5.813 8.691-11.128 8.691-6.324 0-11.458-5.216-11.535-11.68H86C86.078 31.423 92.54 38 100.5 38c7.963 0 14.424-6.577 14.5-14.719l-11.91-.005zM87.509 50.622c-1.246 0-1.93-.406-1.93-1.144v-.125c0-1.123 1.668-1.146 3.78-1.175l.046-.003v2.283l-.034.008c-.522.112-1.045.156-1.862.156zm-2.934-4.705c.563-.216 1.728-.54 2.816-.54.864 0 2.014.128 2.014 1.224v.412l-1.508.05c-2.514.08-3.897.894-3.897 2.29v.125C84 51.34 85.872 52 87.475 52c1.358 0 2.544-.133 3.525-.393v-4.789C91 44.948 89.825 44 87.509 44c-1.07 0-1.859.105-2.94.47l.006 1.447zM116.2 55.308c.925.478 1.904.692 3.174.692 2.337 0 3.626-1.222 3.626-3.443V44h-1.595v6.527l-.032.008c-.519.114-.946.178-1.714.178-1.459 0-2.082-.573-2.082-1.916V44H116v4.684c0 2.86 1.926 3.459 3.542 3.459.687 0 1.395-.076 1.806-.192l.057-.015v.621c0 1.374-.644 2.012-2.031 2.012-1.073 0-2.334-.288-3.172-.722l-.001 1.461zM97.495 51.023l.033.035c.274.284 1.052.942 2.362.942 1.291 0 3.11-.881 3.11-2.844V44h-1.542v4.952c0 .978-.66 1.662-1.602 1.662-.372 0-1.585-.136-1.585-1.882V44h-1.542v4.732c0 1.746-1.225 1.882-1.601 1.882-.919 0-1.586-.698-1.586-1.662V44H92v5.156C92 51.023 93.59 52 95.161 52c1.081 0 1.967-.561 2.299-.94l.035-.037zM109.494 51.023l.034.035c.275.284 1.051.942 2.361.942 1.294 0 3.111-.881 3.111-2.844V44h-1.543v4.952c0 .978-.658 1.662-1.6 1.662-.372 0-1.586-.136-1.586-1.882V44h-1.541v4.732c0 1.746-1.227 1.882-1.603 1.882-.919 0-1.586-.698-1.586-1.662V44H104v5.156c0 1.867 1.59 2.844 3.161 2.844 1.08 0 1.968-.561 2.3-.94l.033-.037zM78 52.57a4.83 4.83 0 0 0 2.031.43C82.001 53 83 51.766 83 49.336V42h-4.758v1.52h3.228v5.816c0 1.784-.594 2.142-1.548 2.142-.659 0-1.29-.193-1.922-.59v1.682zM68 56h1V0h-1zM6.48 33a1.486 1.486 0 0 0-1.054.444A1.538 1.538 0 0 0 5 34.52c.001.395.146.74.438 1.037.29.295.639.444 1.044.444.215 0 .414-.04.598-.12a1.62 1.62 0 0 0 .483-.324A1.438 1.438 0 0 0 8 34.519c0-.42-.146-.779-.438-1.075A1.459 1.459 0 0 0 6.481 33"/>
        <path d="M9.5 33c-.2 0-.39.04-.572.12a1.537 1.537 0 0 0-.806.805A1.452 1.452 0 0 0 8 34.52c0 .197.04.385.123.565a1.567 1.567 0 0 0 .805.797 1.464 1.464 0 0 0 1.162 0c.182-.081.341-.19.479-.325A1.452 1.452 0 0 0 11 34.519c0-.42-.144-.779-.431-1.075A1.433 1.433 0 0 0 9.5 33M21.463 8.537c.135.136.296.247.482.333.184.087.376.13.573.13.197 0 .386-.043.565-.13.179-.086.336-.197.472-.333A1.532 1.532 0 0 0 24 7.482c0-.198-.04-.386-.12-.565a1.585 1.585 0 0 0-.325-.473 1.575 1.575 0 0 0-.472-.323A1.365 1.365 0 0 0 22.518 6c-.197 0-.389.04-.573.121-.186.08-.347.187-.482.323a1.692 1.692 0 0 0-.333.473c-.087.179-.13.367-.13.565 0 .197.043.389.13.574.085.185.196.346.333.481M20.45 11.537c.138.136.3.247.487.333.188.087.388.13.6.13.2 0 .392-.043.573-.13.18-.086.337-.197.47-.333a1.48 1.48 0 0 0 .308-.481c.075-.185.112-.377.112-.574 0-.395-.143-.741-.43-1.038A1.393 1.393 0 0 0 21.537 9a1.556 1.556 0 0 0-1.416.917 1.401 1.401 0 0 0 0 1.139c.082.185.191.346.33.481M23.464 9.445a1.701 1.701 0 0 0-.334.473c-.086.178-.13.366-.13.564 0 .197.044.388.13.574.085.185.197.345.334.481.135.136.296.247.48.333.186.087.377.13.575.13.196 0 .385-.043.565-.13a1.73 1.73 0 0 0 .472-.333c.136-.136.244-.296.323-.481.08-.186.121-.377.121-.574 0-.198-.04-.386-.121-.564a1.558 1.558 0 0 0-.795-.797A1.365 1.365 0 0 0 24.519 9c-.198 0-.39.04-.575.121-.184.08-.345.189-.48.324M24.703 21.825c0 .335-.046.609-.138.821a1.218 1.218 0 0 1-.397.51c-.173.127-.38.213-.622.258-.243.047-.508.07-.795.07h-1.935V17.99c0-.346.04-.628.121-.847a1.33 1.33 0 0 1 .337-.527c.144-.132.314-.224.509-.277.196-.05.415-.076.657-.076h2.263v5.56zm-3.87-7.557a3.448 3.448 0 0 0-1.243.777 3.36 3.36 0 0 0-.795 1.253c-.184.495-.277 1.059-.277 1.693v5.493H9.691v2.263h2.66v.467c0 .69-.17 1.264-.509 1.718-.34.455-.763.812-1.27 1.07a5.76 5.76 0 0 1-1.641.545 9.255 9.255 0 0 1-1.606.156 8.585 8.585 0 0 1-1.961-.217 4.835 4.835 0 0 1-1.607-.672 3.475 3.475 0 0 1-1.088-1.167c-.27-.472-.406-1.036-.406-1.693v-6.996L0 20.443v5.874c0 1.025.222 1.898.665 2.617a5.547 5.547 0 0 0 1.71 1.761 7.368 7.368 0 0 0 2.341.994 10.913 10.913 0 0 0 5.277-.026 7.48 7.48 0 0 0 2.359-1.037 5.507 5.507 0 0 0 1.667-1.752c.42-.703.63-1.532.63-2.488v-.64h8.396c.53 0 1.033-.076 1.511-.233a3.486 3.486 0 0 0 1.26-.716c.364-.322.651-.737.865-1.244.213-.507.319-1.106.319-1.797V14h-4.56c-.587 0-1.123.09-1.606.268zM40.5 33c-.2 0-.39.04-.572.12a1.535 1.535 0 0 0-.928 1.4c0 .196.04.384.123.564a1.564 1.564 0 0 0 .805.797 1.464 1.464 0 0 0 1.162 0c.182-.081.34-.19.479-.325A1.452 1.452 0 0 0 42 34.519c0-.42-.144-.779-.431-1.075A1.433 1.433 0 0 0 40.5 33"/>
        <path d="M37.48 33a1.486 1.486 0 0 0-1.053.444A1.538 1.538 0 0 0 36 34.52c.001.395.146.74.438 1.037.29.295.639.444 1.044.444.215 0 .415-.04.598-.12a1.62 1.62 0 0 0 .483-.324c.14-.137.248-.293.324-.472.076-.18.114-.368.114-.565 0-.42-.146-.779-.438-1.075A1.457 1.457 0 0 0 37.481 33M53.57 9.445A1.397 1.397 0 0 0 52.53 9c-.447 0-.813.148-1.1.445-.286.297-.43.642-.43 1.037 0 .197.039.388.115.574a1.488 1.488 0 0 0 .802.814c.191.087.395.13.612.13.203 0 .394-.043.573-.13.178-.086.335-.197.468-.333.134-.136.24-.296.315-.481.077-.186.115-.377.115-.574 0-.395-.143-.74-.43-1.037"/>
        <path d="M48.431 11.537c.137.136.297.247.478.333.181.087.378.13.59.13.2 0 .39-.043.573-.13a1.75 1.75 0 0 0 .478-.333c.137-.135.247-.296.328-.481.081-.185.122-.377.122-.574 0-.198-.04-.386-.122-.565a1.599 1.599 0 0 0-.328-.473 1.596 1.596 0 0 0-.478-.323A1.393 1.393 0 0 0 49.5 9c-.213 0-.41.04-.59.121-.182.08-.342.188-.479.323A1.45 1.45 0 0 0 48 10.482a1.498 1.498 0 0 0 .431 1.055M51.695 21.929c0 1.037-.563 1.554-1.69 1.554h-9.133v2.264h2.71v.466c0 .692-.173 1.264-.518 1.719a3.665 3.665 0 0 1-1.294 1.07 5.961 5.961 0 0 1-1.672.545 9.606 9.606 0 0 1-1.637.156c-.703 0-1.37-.072-1.997-.216a4.968 4.968 0 0 1-1.636-.673 3.487 3.487 0 0 1-1.11-1.167c-.274-.472-.412-1.036-.412-1.693v-6.996L31 20.444v5.873c0 1.025.226 1.897.677 2.617a5.599 5.599 0 0 0 1.743 1.761c.71.456 1.504.787 2.384.995a11.307 11.307 0 0 0 5.376-.026 7.695 7.695 0 0 0 2.402-1.038 5.552 5.552 0 0 0 1.698-1.752c.429-.703.643-1.532.643-2.488v-.639h3.907c.563 0 1.099-.074 1.61-.226.51-.149.953-.382 1.328-.699a3.36 3.36 0 0 0 .897-1.218c.223-.494.335-1.088.335-1.78V14h-2.305v7.929zM31 39h11v2.24h-4.284V52h-2.433V41.24H31zM49.232 52h-2.464L42 39h2.465L48 48.64 51.535 39H54z"/>
    </g>
</svg>
